# xmcd
#
# Track frame offsets: 
#        150
#        23616
#        59634
#        84381
#        109588
#        143558
#        164098
#        184784
#        216170
#        245229
#        272401
#        302366
#
# Disc length: 4425 seconds
#
# Revision: 0
# Processed by: cddbd v1.5.2PL0 Copyright (c) Steve Scherf et al.
# Submitted via: ExactAudioCopy v1.3
#
DISCID=a211470c
DTITLE=Carla Olson and Mick Taylor - Too Hot For Snakes Plus [disc 1]
DYEAR=2008
DGENRE=Blues Rock
TTITLE0=Who Put The Sting On The Honeybee
TTITLE1=Slow Rollin' Train
TTITLE2=Trying To Hold On
TTITLE3=Rubies and Diamonds
TTITLE4=See The Light
TTITLE5=You Can't Move In
TTITLE6=Broken Hands
TTITLE7=Sway
TTITLE8=Hartley Quits
TTITLE9=Midnight Mission
TTITLE10=Silver Train
TTITLE11=You Gotta Move
EXTD=
EXTT0=
EXTT1=
EXTT2=
EXTT3=
EXTT4=
EXTT5=
EXTT6=
EXTT7=
EXTT8=
EXTT9=
EXTT10=
EXTT11=
PLAYORDER=
